<svg width="69" height="45" viewBox="0 0 69 45" fill="none" xmlns="http://www.w3.org/2000/svg">
<path d="M43.6168 22.8988C43.8714 23.1536 44.0144 23.4991 44.0144 23.8594C44.0144 24.2196 43.8714 24.5651 43.6168 24.82L35.9137 32.5231C35.6588 32.7777 35.3133 32.9207 34.9531 32.9207C34.5928 32.9207 34.2473 32.7777 33.9925 32.5231L26.2893 24.82C26.0489 24.5624 25.9179 24.2214 25.924 23.8691C25.9301 23.5168 26.0728 23.1806 26.322 22.9314C26.5711 22.6822 26.9073 22.5395 27.2597 22.5335C27.612 22.5274 27.9529 22.6583 28.2106 22.8988L33.5937 28.2819V14.7969C33.5937 14.4363 33.7369 14.0906 33.9919 13.8357C34.2468 13.5807 34.5926 13.4375 34.9531 13.4375C35.3136 13.4375 35.6594 13.5807 35.9143 13.8357C36.1692 14.0906 36.3125 14.4363 36.3125 14.7969V28.2819L41.6956 22.8988C41.9505 22.6442 42.296 22.5012 42.6562 22.5012C43.0164 22.5012 43.3619 22.6442 43.6168 22.8988Z" fill="#828282"/>
</svg>
