<svg width="29" height="29" viewBox="0 0 29 29" fill="none" xmlns="http://www.w3.org/2000/svg">
<path d="M14.8987 5.38317C15.1536 5.1286 15.4991 4.98561 15.8594 4.98561C16.2196 4.98561 16.5651 5.1286 16.82 5.38317L24.5231 13.0863C24.7777 13.3412 24.9207 13.6867 24.9207 14.0469C24.9207 14.4072 24.7777 14.7527 24.5231 15.0075L16.82 22.7107C16.5624 22.9511 16.2214 23.0821 15.8691 23.076C15.5168 23.0699 15.1806 22.9272 14.9314 22.678C14.6822 22.4289 14.5395 22.0927 14.5335 21.7403C14.5274 21.388 14.6583 21.0471 14.8988 20.7894L20.2819 15.4063L6.79687 15.4063C6.43635 15.4063 6.09058 15.2631 5.83565 15.0081C5.58072 14.7532 5.4375 14.4074 5.4375 14.0469C5.4375 13.6864 5.58072 13.3406 5.83565 13.0857C6.09058 12.8308 6.43635 12.6875 6.79687 12.6875L20.2819 12.6875L14.8987 7.30442C14.6442 7.04953 14.5012 6.70403 14.5012 6.34379C14.5012 5.98356 14.6442 5.63805 14.8987 5.38317Z" fill="black"/>
</svg>
