<svg width="33" height="39" viewBox="0 0 33 39" fill="none" xmlns="http://www.w3.org/2000/svg">
<path d="M19.6068 37.087C24.2911 32.9644 32.625 24.5417 32.625 16.8125C32.625 12.5359 30.9261 8.43443 27.9021 5.4104C24.8781 2.38638 20.7766 0.6875 16.5 0.6875C12.2234 0.6875 8.12193 2.38638 5.0979 5.4104C2.07388 8.43443 0.375 12.5359 0.375 16.8125C0.375 24.5417 8.70625 32.9644 13.3932 37.087C14.2482 37.8501 15.354 38.2718 16.5 38.2718C17.646 38.2718 18.7518 37.8501 19.6068 37.087ZM11.125 16.8125C11.125 15.387 11.6913 14.0198 12.6993 13.0118C13.7073 12.0038 15.0745 11.4375 16.5 11.4375C17.9255 11.4375 19.2927 12.0038 20.3007 13.0118C21.3087 14.0198 21.875 15.387 21.875 16.8125C21.875 18.238 21.3087 19.6052 20.3007 20.6132C19.2927 21.6212 17.9255 22.1875 16.5 22.1875C15.0745 22.1875 13.7073 21.6212 12.6993 20.6132C11.6913 19.6052 11.125 18.238 11.125 16.8125Z" fill="#FBE662"/>
</svg>
